<?xml version="1.0" encoding="UTF-8"?>
<svg width="16px" height="16px" viewBox="0 0 16 16" version="1.1" xmlns="http://www.w3.org/2000/svg" xmlns:xlink="http://www.w3.org/1999/xlink">
    <!-- Generator: Sketch 53 (72520) - https://sketchapp.com -->
    <title>icon_language</title>
    <desc>Created with Sketch.</desc>
    <g id="Page-1" stroke="none" stroke-width="1" fill="none" fill-rule="evenodd">
        <g id="Group-4" fill="#5E6180" fill-rule="nonzero">
            <g id="语言-英文">
                <path d="M13.9371132,0.33156959 L2.07146648,0.33156959 C0.929929098,0.33156959 0.00428983959,1.41218078 0.00428983959,2.7448572 L0.00428983959,12.3550365 C0.00428983959,13.6876918 0.929929098,14.768303 2.07146648,14.768303 L5.80848188,14.768303 L7.71947498,16.1948364 C7.8756766,16.3771473 8.13062514,16.3771473 8.28680868,16.1948364 L10.0806686,14.9050678 C10.1564554,14.8165717 10.2575164,14.768303 10.3654835,14.768303 L13.9371132,14.768303 C15.0786506,14.768303 16.0042898,13.6876918 16.0042898,12.3550365 L16.0042898,2.7448572 C16.0042898,1.41218078 15.0786506,0.33156959 13.9371132,0.33156959 Z M7.420884,10.236722 C7.32211902,10.3413006 7.18200761,10.3949302 7.00515989,10.3949302 L4.44873228,10.3949302 C4.2121519,10.3949302 4.03300816,10.3278985 3.92046706,10.1938352 C3.80790788,10.0597508 3.75048932,9.85329493 3.75048932,9.57978632 L3.75048932,5.50402482 C3.75048932,5.32705363 3.77574553,5.17688667 3.82168399,5.05622545 C3.87451052,4.92484255 3.95720337,4.82830513 4.06974447,4.76931474 C4.17080547,4.71570629 4.29943679,4.68888096 4.44873228,4.68888096 L6.93165111,4.68888096 C7.11310895,4.68888096 7.25322036,4.73983009 7.34739331,4.84172835 C7.44615829,4.94628593 7.4966888,5.0857101 7.4966888,5.2519807 C7.4966888,5.42091062 7.44615829,5.5603348 7.34739331,5.66491348 C7.25092434,5.76681173 7.11081293,5.81776086 6.93165111,5.81776086 L4.93339121,5.81776086 L4.93339121,6.86350546 L6.76169145,6.86350546 C6.93624315,6.86350546 7.07176252,6.91445459 7.16593547,7.01367243 C7.26240444,7.11557069 7.31293494,7.25231444 7.31293494,7.41588351 C7.31293494,7.57945259 7.26470046,7.71621744 7.17052751,7.82077502 C7.07865058,7.9253537 6.94083519,7.97630283 6.76398747,7.97630283 L4.93566915,7.97630283 L4.93566915,9.23388521 L7.00515989,9.23388521 C7.1843217,9.23388521 7.32443311,9.28749366 7.420884,9.39209345 C7.52194501,9.49935255 7.57247551,9.64413757 7.57247551,9.81574791 C7.57247551,9.99003868 7.52194501,10.129484 7.420884,10.236722 L7.420884,10.236722 Z M12.7725975,9.64147825 C12.7725975,9.95521429 12.6922007,10.4834474 12.1547333,10.4834474 C12.0582644,10.4834474 11.9687015,10.4673649 11.8906007,10.4324983 C11.8102039,10.3976317 11.7343991,10.3440022 11.6632044,10.2716097 C11.5988978,10.204578 11.5391832,10.1241231 11.4840426,10.0356481 C11.4335302,9.95251276 11.3829816,9.86939857 11.3324692,9.78360395 L9.81651795,7.0699613 L9.81651795,9.72189092 C9.81651795,9.96053292 9.76598745,10.1482258 9.66492644,10.2769283 C9.56156942,10.4110127 9.42605005,10.4780444 9.26527446,10.4780444 C9.09990684,10.4780444 8.96209145,10.4083112 8.86103044,10.2715674 C8.76226546,10.1401845 8.71403097,9.95517208 8.71403097,9.71918939 L8.71403097,5.61128392 C8.71403097,5.4182302 8.73239913,5.26538281 8.77144953,5.15008244 L8.77374555,5.14740202 C8.82198004,5.0133387 8.90467289,4.90071875 9.01491797,4.81758344 C9.12516305,4.73446925 9.24690631,4.69156139 9.37551954,4.69156139 C9.47428453,4.69156139 9.56386544,4.71300476 9.63965215,4.75055178 C9.71088299,4.7880988 9.77748562,4.84172835 9.83031214,4.90607959 C9.88084265,4.96506999 9.93137315,5.04284445 9.98190365,5.13668033 L9.98190464,5.13668218 C10.0295438,5.22560466 10.0777797,5.31408941 10.1266081,5.40212841 L11.6838877,8.15595629 L11.6838877,5.4477167 C11.6838877,5.20907469 11.7321222,5.02138181 11.8262951,4.89267933 C11.9250601,4.7585949 12.0582654,4.68888281 12.2236511,4.68888281 C12.3913147,4.68888281 12.5291301,4.75591447 12.6278951,4.89267933 C12.724364,5.02138181 12.7725985,5.20907469 12.7725985,5.4477167 L12.7725985,9.6414801 L12.7725975,9.64147825 Z" id="形状"></path>
            </g>
        </g>
    </g>
</svg>