<?xml version="1.0" encoding="UTF-8"?>
<svg width="16px" height="16px" viewBox="0 0 16 16" version="1.1" xmlns="http://www.w3.org/2000/svg" xmlns:xlink="http://www.w3.org/1999/xlink">
    <!-- Generator: Sketch 53 (72520) - https://sketchapp.com -->
    <title>icon_export</title>
    <desc>Created with Sketch.</desc>
    <g id="Page-1" stroke="none" stroke-width="1" fill="none" fill-rule="evenodd">
        <g id="Group">
            <g id="导出">
                <rect id="矩形" x="0" y="0" width="16" height="16"></rect>
                <path d="M14.2560166,2.80529622 L7.92000922,2.80529622 L6.33600737,1 L1.58400184,1 C0.713778608,1 0.00977778916,1.81529507 0.00977778916,2.80529622 L0,13.6370735 C0,14.6270747 0.713778608,15.4423697 1.58400184,15.4423697 L14.2560166,15.4423697 C15.1262398,15.4423697 15.8400184,14.6270747 15.8400184,13.6370735 L15.8400184,4.61059244 C15.8400184,3.62059128 15.1262398,2.80529622 14.2560166,2.80529622 Z M9.30845528,9.17236245 L9.30845528,11.676483 L6.53156316,11.676483 L6.53156316,9.17236245 L4.09689366,9.17236245 L7.92000922,4.76588674 L11.7431248,9.18206834 L9.30845528,9.18206834 L9.30845528,9.17236245 Z" id="形状" fill="#5E6180" fill-rule="nonzero"></path>
            </g>
        </g>
    </g>
</svg>