<?xml version="1.0" encoding="UTF-8"?>
<svg width="16px" height="16px" viewBox="0 0 16 16" version="1.1" xmlns="http://www.w3.org/2000/svg" xmlns:xlink="http://www.w3.org/1999/xlink">
    <!-- Generator: Sketch 53 (72520) - https://sketchapp.com -->
    <title>icon_help</title>
    <desc>Created with Sketch.</desc>
    <g id="Page-1" stroke="none" stroke-width="1" fill="none" fill-rule="evenodd">
        <g id="Group-4" fill="#5E6180" fill-rule="nonzero">
            <g id="帮助">
                <path d="M8.64110474,9.39735562 L8.64110474,9.70844973 C8.64110474,10.0625126 8.35407315,10.3495442 8.00001024,10.3495442 C7.64594733,10.3495442 7.35891574,10.0625126 7.35891574,9.70844973 L7.35891574,8.96251136 C7.35891574,8.66516726 7.56516598,8.42626074 7.8401663,8.3523544 C9.28391798,7.74907245 9.28563674,6.85532141 9.28391798,6.81579011 L9.28391798,5.82922646 C9.28391798,5.25688205 8.70813606,4.7893815 8.00001024,4.7893815 C7.29360317,4.7893815 6.71782125,5.25688205 6.71782125,5.82922646 L6.71782125,6.14375808 C6.71782125,6.49782099 6.43078966,6.78485258 6.07672675,6.78485258 C5.72266384,6.78485258 5.43563226,6.49782099 5.43563226,6.14375808 L5.43563226,5.83094522 C5.43563226,4.55047498 6.5871961,3.50891126 8.00172899,3.50891126 C9.41798064,3.50891126 10.5678257,4.55219373 10.5678257,5.83094522 L10.5678257,6.78485258 C10.5695445,6.81063386 10.6589196,8.40391696 8.64110474,9.39735562 M8.00001024,12.4911092 C7.64594733,12.4911092 7.35891574,12.2040776 7.35891574,11.8500147 C7.35891574,11.4959518 7.64594733,11.2089202 8.00001024,11.2089202 C8.35407315,11.2089202 8.64110474,11.4959518 8.64110474,11.8500147 C8.64110474,12.2040776 8.35407315,12.4911092 8.00001024,12.4911092 M8.00001024,0.30000128 C3.7546928,0.30000128 0.30000128,3.7546928 0.30000128,8.00001024 C0.30000128,12.2453277 3.7546928,15.7000192 8.00001024,15.7000192 C12.2453277,15.7000192 15.7000192,12.2453277 15.7000192,8.00001024 C15.7000192,3.7546928 12.2453277,0.30000128 8.00001024,0.30000128" id="形状"></path>
            </g>
        </g>
    </g>
</svg>