<?xml version="1.0" encoding="UTF-8"?>
<svg width="16px" height="16px" viewBox="0 0 16 16" version="1.1" xmlns="http://www.w3.org/2000/svg" xmlns:xlink="http://www.w3.org/1999/xlink">
    <!-- Generator: Sketch 53 (72520) - https://sketchapp.com -->
    <title>icon_user_agreement</title>
    <desc>Created with Sketch.</desc>
    <g id="Page-1" stroke="none" stroke-width="1" fill="none" fill-rule="evenodd">
        <g id="Group-5">
            <g id="用户协议">
                <rect id="矩形" x="0" y="0" width="16" height="16"></rect>
                <path d="M10.9287901,0.0143179698 C10.8649495,0.0143179698 3.98418937,0 3.98418937,0 C2.88834509,0 2,0.895432292 2,2.00006483 L2,14.0000007 C2,15.1046254 2.88834198,16.0000342 3.98418937,16.0000342 L12.9129795,16.0000342 C14.0087912,16.0000342 14.8971534,15.1046332 14.8971534,14.0000007 L14.8971534,5.00002144 C14.8971534,4.84373845 14.8971534,4.73440395 14.8971534,4.00003278 L10.9288056,0.0143250167 L10.9287901,0.0143179698 Z M11.4248359,11.9999882 L5.4722833,11.9999882 C5.19833775,11.9999882 4.97625303,11.7760785 4.97625303,11.5000095 C4.97625303,11.2238295 5.19833775,10.9999511 5.4722833,10.9999511 L11.4248359,10.9999511 C11.6987644,10.9999511 11.9208352,11.2238138 11.9208352,11.5000095 C11.920851,11.7760942 11.698766,11.9999882 11.4248359,11.9999882 Z M11.4248359,9.00001593 L5.4722833,9.00001593 C5.19833775,9.00001593 4.97625303,8.77613754 4.97625303,8.49995753 C4.97625303,8.22388846 5.19833775,8.00002726 5.4722833,8.00002726 L11.4248359,8.00002726 C11.6987644,8.00002726 11.9208352,8.22389002 11.9208352,8.49995753 C11.920851,8.77615317 11.698766,9.00001593 11.4248359,9.00001593 Z M11.9208988,4.00002573 C11.3729611,4.00002573 10.9287901,3.55225334 10.9287901,3.00003707 C10.9287901,3.00003707 10.9287901,2.19055956 10.9287901,1.00006599 L13.9050742,4.00003823 L11.9209003,4.00003823 L11.9208988,4.00002573 Z" id="形状" fill="#5E6180" fill-rule="nonzero"></path>
            </g>
        </g>
    </g>
</svg>