<?xml version="1.0" encoding="UTF-8"?>
<svg width="16px" height="16px" viewBox="0 0 16 16" version="1.1" xmlns="http://www.w3.org/2000/svg" xmlns:xlink="http://www.w3.org/1999/xlink">
    <!-- Generator: Sketch 53 (72520) - https://sketchapp.com -->
    <title>icon_receipt</title>
    <desc>Created with Sketch.</desc>
    <g id="Page-1" stroke="none" stroke-width="1" fill="none" fill-rule="evenodd">
        <g id="分组-14">
            <g id="分组-9-copy-2">
                <g id="分组-7">
                    <rect id="矩形" x="0" y="0" width="16" height="16"></rect>
                    <g id="erweima" transform="translate(1.000000, 1.000000)" fill="#FFFFFF" fill-rule="nonzero">
                        <path d="M0.00200286123,13.9750371 L6.34105866,13.9750371 L6.34105866,7.6282318 L0.00200286123,7.6282318 L0.00200286123,13.9750371 L0.00200286123,13.9750371 Z M1.11359084,8.75988113 L5.22346209,8.75988113 L5.22346209,12.8267459 L1.11359084,12.8267459 L1.11359084,8.75988113 L1.11359084,8.75988113 Z M6.33505007,0.00832095097 L0.00600858369,0.00832095097 L0.00600858369,6.36968796 L6.33505007,6.36968796 L6.33505007,0.00832095097 Z M5.21144492,5.19851412 L1.11959943,5.19851412 L1.11959943,1.10668648 L5.21144492,1.10668648 L5.21144492,5.19851412 Z M7.94134478,6.39257058 C9.66180258,6.39049034 11.3822604,6.39257058 13.1027182,6.39257058 L13.927897,6.39257058 L13.927897,0.0124814264 L7.61287554,0.0124814264 C7.60286123,0.0873699851 7.58683834,0.145616642 7.58683834,0.201783061 C7.58483548,2.1717682 7.59084406,4.13967311 7.58082976,6.10965825 C7.5788269,6.42169391 7.7490701,6.39257058 7.94134478,6.39257058 L7.94134478,6.39257058 Z M8.70443491,1.41872214 C8.70443491,1.23982169 8.6944206,1.08380386 8.94878398,1.0858841 C10.2005722,1.09628529 11.4543634,1.09212481 12.7061516,1.09420505 C12.7381974,1.09420505 12.7702432,1.11500743 12.8203147,1.13164933 L12.8203147,5.19435364 C12.7321888,5.20683507 12.6420601,5.22763744 12.5539342,5.22763744 C11.3822604,5.22971768 10.2125894,5.22347697 9.04291845,5.23387816 C8.78454936,5.2359584 8.69642346,5.15690936 8.70042918,4.88231798 C8.71244635,3.72778603 8.70643777,2.57325409 8.70443491,1.41872214 L8.70443491,1.41872214 Z M13.8818312,11.5619614 L13.8818312,7.58870728 L12.7842632,7.58870728 L12.7842632,10.482318 C12.2895565,10.482318 11.834907,10.4719168 11.3802575,10.4864785 C11.1118741,10.4947994 11.0437768,10.3720654 11.0477825,10.1141159 C11.0597997,9.42139673 11.0377682,8.72659733 11.0577969,8.03387816 C11.0678112,7.71560178 11.0017167,7.58662704 10.6592275,7.59702823 C9.75793991,7.62407132 8.85665236,7.61783061 7.95536481,7.59910847 C7.66695279,7.59286776 7.57682403,7.67399703 7.5788269,7.98395245 C7.59284692,9.86864785 7.58483548,11.7533432 7.58683834,13.6401189 C7.58683834,13.746211 7.59685265,13.8543834 7.60286123,13.9750371 L8.7204578,13.9750371 L8.7204578,8.69955423 L9.89213162,8.69955423 L9.89213162,11.5619614 L13.8818312,11.5619614 L13.8818312,11.5619614 Z" id="形状"></path>
                        <path d="M9.96223176,13.9812779 L11.6686695,13.9812779 L11.6686695,12.3358098 L9.96223176,12.3358098 L9.96223176,13.9812779 Z M12.3476395,12.3337296 L12.3476395,13.9875186 L13.9939914,13.9875186 L13.9939914,12.3337296 L12.3476395,12.3337296 Z M3.9055794,9.93729569 C3.38483548,9.9268945 2.86409156,9.93105498 2.31731044,9.93105498 C2.31731044,10.4635958 2.309299,10.946211 2.32532189,11.4288262 C2.32732475,11.5016345 2.42947067,11.6326895 2.48955651,11.6347697 C3.00028612,11.6514116 3.51101574,11.6451709 4.06380544,11.6451709 C4.06380544,11.1001486 4.06781116,10.5946508 4.05779685,10.089153 C4.05379113,10.0350669 3.95765379,9.93937593 3.9055794,9.93729569 L3.9055794,9.93729569 Z M2.49356223,4.06062407 C2.99027182,4.07726597 3.48898426,4.07102526 4.00572246,4.07102526 L4.00572246,2.34026746 L2.31731044,2.34026746 C2.31731044,2.86240713 2.309299,3.35958395 2.32532189,3.85468053 C2.32732475,3.92748886 2.43147353,4.05854383 2.49356223,4.06062407 L2.49356223,4.06062407 Z M11.6846924,3.99405646 C11.6846924,3.48231798 11.6947067,3.01218425 11.6746781,2.54205052 C11.6706724,2.46092125 11.5364807,2.32570579 11.4563662,2.32154532 C11.0257511,2.30074294 10.593133,2.30282318 10.1625179,2.31946508 C10.0864092,2.32154532 9.95021459,2.41931649 9.94821173,2.47756315 C9.93218884,2.97890045 9.93819742,3.48231798 9.93819742,3.99405646 L11.6846924,3.99405646 Z" id="形状"></path>
                    </g>
                </g>
            </g>
        </g>
    </g>
</svg>