<?xml version="1.0" encoding="UTF-8"?>
<svg width="16px" height="16px" viewBox="0 0 16 16" version="1.1" xmlns="http://www.w3.org/2000/svg" xmlns:xlink="http://www.w3.org/1999/xlink">
    <!-- Generator: Sketch 53 (72520) - https://sketchapp.com -->
    <title>icon_loading</title>
    <desc>Created with Sketch.</desc>
    <g id="Page-1" stroke="none" stroke-width="1" fill="none" fill-rule="evenodd">
        <g id="分组-50" fill="#A4A4A4">
            <g id="Group-7">
                <rect id="Rectangle-14" opacity="0.300000012" x="7.36" y="0" width="1.28" height="4.48" rx="0.64"></rect>
                <rect id="Rectangle-14-Copy" opacity="0.699999988" x="7.36" y="11.52" width="1.28" height="4.48" rx="0.64"></rect>
                <rect id="Rectangle-14-Copy-2" opacity="0.900000036" transform="translate(2.240000, 8.320000) rotate(-270.000000) translate(-2.240000, -8.320000) " x="1.6" y="6.08" width="1.28" height="4.48" rx="0.64"></rect>
                <rect id="Rectangle-14-Copy-3" opacity="0.5" transform="translate(13.760000, 8.320000) rotate(-270.000000) translate(-13.760000, -8.320000) " x="13.12" y="6.08" width="1.28" height="4.48" rx="0.64"></rect>
                <rect id="Rectangle-14-Copy-3" opacity="0.400000006" transform="translate(12.415327, 4.186232) rotate(-315.000000) translate(-12.415327, -4.186232) " x="11.7753268" y="2.53803306" width="1.28" height="3.29639743" rx="0.64"></rect>
                <rect id="Rectangle-14-Copy-3" transform="translate(3.538001, 4.178001) scale(-1, 1) rotate(-315.000000) translate(-3.538001, -4.178001) " x="2.89800083" y="2.52980211" width="1.28" height="3.29639743" rx="0.64"></rect>
                <rect id="Rectangle-14-Copy-3" opacity="0.600000024" transform="translate(12.178001, 12.178001) scale(1, -1) rotate(-315.000000) translate(-12.178001, -12.178001) " x="11.5380008" y="10.5298021" width="1.28" height="3.29639743" rx="0.64"></rect>
                <rect id="Rectangle-14-Copy-3" opacity="0.800000012" transform="translate(3.538001, 12.178001) scale(-1, -1) rotate(-315.000000) translate(-3.538001, -12.178001) " x="2.89800083" y="10.5298021" width="1.28" height="3.29639743" rx="0.64"></rect>
            </g>
        </g>
    </g>
</svg>