<?xml version="1.0" encoding="UTF-8"?>
<svg width="40px" height="47px" viewBox="0 0 40 47" version="1.1" xmlns="http://www.w3.org/2000/svg" xmlns:xlink="http://www.w3.org/1999/xlink">
    <!-- Generator: Sketch 53 (72520) - https://sketchapp.com -->
    <title>img_loading</title>
    <desc>Created with Sketch.</desc>
    <defs>
        <linearGradient x1="79.6693991%" y1="50.4941228%" x2="79.6698496%" y2="49.5457808%" id="linearGradient-1">
            <stop stop-color="#3D3F57" stop-opacity="0" offset="0.0686233108%"></stop>
            <stop stop-color="#717296" offset="79.4499578%"></stop>
            <stop stop-color="#989CBF" offset="99.7914907%"></stop>
        </linearGradient>
        <linearGradient x1="50%" y1="0%" x2="50%" y2="100%" id="linearGradient-2">
            <stop stop-color="#9192BA" stop-opacity="0.701458698" offset="0%"></stop>
            <stop stop-color="#696B88" stop-opacity="0" offset="100%"></stop>
        </linearGradient>
        <linearGradient x1="50%" y1="0%" x2="50%" y2="100%" id="linearGradient-3">
            <stop stop-color="#9192BA" stop-opacity="0.701458698" offset="0%"></stop>
            <stop stop-color="#696B88" stop-opacity="0" offset="100%"></stop>
        </linearGradient>
        <linearGradient x1="79.6693988%" y1="62.5669196%" x2="79.6698496%" y2="38.4631447%" id="linearGradient-4">
            <stop stop-color="#3D3F57" stop-opacity="0" offset="0.0686233108%"></stop>
            <stop stop-color="#717296" offset="79.4499578%"></stop>
            <stop stop-color="#989CBF" offset="100%"></stop>
        </linearGradient>
        <linearGradient x1="79.6693991%" y1="70.9089456%" x2="79.6698496%" y2="30.7795856%" id="linearGradient-5">
            <stop stop-color="#3D3F57" stop-opacity="0" offset="0.0686233108%"></stop>
            <stop stop-color="#717296" offset="79.4499578%"></stop>
            <stop stop-color="#989CBF" offset="100%"></stop>
        </linearGradient>
        <linearGradient x1="50%" y1="0%" x2="50%" y2="100%" id="linearGradient-6">
            <stop stop-color="#9192BA" stop-opacity="0.301272946" offset="0%"></stop>
            <stop stop-color="#696B88" stop-opacity="0" offset="100%"></stop>
        </linearGradient>
        <linearGradient x1="79.6693998%" y1="55.937601%" x2="79.6698496%" y2="44.5274881%" id="linearGradient-7">
            <stop stop-color="#67698C" stop-opacity="0" offset="0.0686233108%"></stop>
            <stop stop-color="#6B6E91" offset="100%"></stop>
        </linearGradient>
    </defs>
    <g id="Page-1" stroke="none" stroke-width="1" fill="none" fill-rule="evenodd">
        <g id="分组-49">
            <g id="分组-46">
                <rect id="矩形" fill="url(#linearGradient-1)" x="0" y="43" width="40" height="4" rx="2"></rect>
                <rect id="矩形" fill="url(#linearGradient-1)" x="0" y="0" width="40" height="4" rx="2"></rect>
                <g id="分组-45" transform="translate(3.000000, 4.000000)">
                    <path d="M9.12093865,13.7625152 C8.99768245,13.6392688 8.87442624,13.4749413 8.79225641,13.3516949 C5.75194645,9.57214818 4.1907012,4.80663027 4.1085304,9.74896466e-07 L2.27373675e-13,9.74896466e-07 C0.205427007,5.58716159 2.38295328,10.6813561 5.71086105,14.2143807 C6.4093119,14.0911343 7.64187492,13.8857246 9.12093962,13.7624782 L9.12093865,13.7625152 Z" id="路径" fill="url(#linearGradient-2)"></path>
                    <path d="M12.613188,22.1432513 C13.1062119,21.8145952 13.6403231,21.5270202 14.2155187,21.2805284 C14.7496279,21.0340366 15.6124223,20.5821331 15.8178493,20.0069822 C15.1193985,19.8426537 14.8317997,19.5550797 14.8317997,19.5550797 L14.7085435,19.5550797 C14.7085435,19.5961617 14.7496288,19.6783261 14.7496288,19.7194082 C14.7496288,20.1302286 14.462032,20.4588857 14.0922634,20.541049 C6.20388577,22.061088 0.369797765,29.7845099 0.0410365553,39.0280097 L4.02631075,39.0280097 C4.10848136,37.2614779 5.4642998,31.9208101 5.6286414,31.34567 C7.18988666,26.3336593 10.8053922,23.3757553 12.6131499,22.1432913 L12.613188,22.1432513 Z" id="路径" fill="url(#linearGradient-3)"></path>
                    <path d="M9.12093865,13.7625152 C11.996907,13.4749413 15.8178493,13.3516949 18.6527323,14.3376641 C22.3504087,15.6112103 26.7465369,14.4198282 28.1023551,13.9679259 C31.3891775,10.434872 33.484533,5.46394346 33.68996,0 L4.10856842,0 C4.19073903,4.80660005 5.75198448,9.57211796 8.75120904,13.3516939 C8.87446524,13.4749403 8.99772144,13.5981857 9.12097667,13.7625143 L9.12093865,13.7625152 Z" id="路径" fill="url(#linearGradient-4)"></path>
                    <path d="M15.7767639,20.00699 C15.5713369,20.5821389 14.7496289,21.0340434 14.1744333,21.2805362 C13.640324,21.527028 13.1062128,21.814603 12.5721026,22.1432591 C10.764345,23.3757231 7.14883938,26.3336271 5.54650872,31.3456378 C5.38216712,31.9207867 4.02634887,37.3025377 3.94417807,39.0279776 L33.6899502,39.0279776 C33.361268,29.9077631 27.3628081,22.0200322 19.5154867,20.5410168 C19.1457191,20.4588527 18.8581213,20.1301964 18.8581213,19.7193761 L18.8581213,19.678294 C18.5705244,19.8426226 17.9542444,20.1712787 17.0092782,20.1712787 C16.475169,20.1301966 16.1054013,20.0891146 15.7767162,20.0069501 L15.7767639,20.00699 Z" id="路径" fill="url(#linearGradient-5)"></path>
                    <path d="M15.7767932,20.0070193 C15.8178785,19.9248552 15.8178785,19.8426907 15.8178785,19.7605274 C15.8178785,18.6102276 13.6814376,17.6242564 13.6814376,17.6242564 C11.9147654,16.6793692 10.3946152,15.2414926 9.0798824,13.7214633 C7.60080795,13.8857919 6.36825565,14.0501194 5.71088923,14.1733658 C8.01167171,16.5972118 10.8465547,18.2815696 14.0101208,18.8567195 C14.3388031,18.9388835 14.5853155,19.1853756 14.6674863,19.4729505 L14.7907425,19.4729505 C14.8318278,19.5551146 15.1194247,19.8426888 15.7767921,20.0070173 L15.7767932,20.0070193 Z" id="路径" fill="url(#linearGradient-6)"></path>
                    <path d="M18.6527713,14.2965635 C15.8178883,13.3516763 11.996946,13.4338406 9.12097765,13.7214146 C10.3946251,15.2414536 11.9558606,16.6793185 13.7225329,17.6242077 C13.7225329,17.6242077 15.8589737,18.5690948 15.8589737,19.7604787 C15.8589737,19.8426427 15.8589737,19.9248072 15.8178884,20.0069705 C16.1465707,20.0891346 16.5163393,20.1302169 17.0093651,20.1302169 C17.9543274,20.1302169 18.6116957,19.8015608 18.8582081,19.6372323 C18.8992934,19.267494 19.145805,18.9388369 19.5155736,18.8977548 C22.802396,18.2815238 25.7605449,16.4739088 28.1434884,13.9268262 C26.7465847,14.3787287 22.3504565,15.5701116 18.6527802,14.2965645 L18.6527713,14.2965635 Z" id="路径" fill="url(#linearGradient-7)"></path>
                    <g id="c-link" transform="translate(15.165485, 22.097295)" fill="#BEC3D0" fill-rule="nonzero">
                        <path d="M0.0360740355,1.73034365 L0.0360740355,1.7303439 C0.0360741725,2.63790325 0.771855662,3.3736293 1.67949009,3.3736293 C2.5871216,3.37362916 3.32290615,2.63790617 3.32290615,1.7303439 L3.32290615,1.7303439 C3.32290615,0.822784552 2.5871255,0.0870584982 1.67949009,0.0870584982 C0.771858587,0.0870584982 0.0360740355,0.822780653 0.0360740355,1.7303439 L0.0360740355,1.73034365 Z" id="c"></path>
                    </g>
                    <g id="d-link" transform="translate(14.775495, 27.459225)" fill="#BEC3D0" fill-rule="nonzero">
                        <path d="M0.0152095933,1.29826956 L0.0152095933,1.29826939 C0.0152094905,1.97893914 0.567044838,2.53073344 1.24777164,2.53073344 C1.92849551,2.53073354 2.48033368,1.97894207 2.48033368,1.29826939 C2.48033368,1.29826937 2.48033368,1.29826937 2.48033368,1.29826936 L2.48033368,1.29826934 C2.48033368,0.617599587 1.92849844,0.0658052903 1.24777164,0.0658052903 C0.567047763,0.0658052903 0.0152095933,0.617596662 0.0152095933,1.29826934 C0.0152095933,1.29826936 0.0152095933,1.29826936 0.0152095933,1.29826937 L0.0152095933,1.29826956 Z" id="d"></path>
                    </g>
                    <g id="e-link" transform="translate(17.212930, 32.041238)" fill="#BEC3D0" fill-rule="nonzero">
                        <path d="M0.039142698,0.710487266 L0.0391426983,0.710486614 C0.0389996824,1.10153185 0.374562705,1.41864591 0.788642632,1.41878033 C1.20272345,1.41891539 1.53851798,1.10201996 1.53866032,0.710975562 C1.53866038,0.710812966 1.53866038,0.710650369 1.53866032,0.710487773 L1.53866032,0.710488345 C1.53880329,0.31944311 1.20324031,0.00232904383 0.789160384,0.00219462505 C0.375079567,0.00205960979 0.0392850356,0.318955001 0.0391426985,0.709999396 C0.0391426391,0.710161993 0.039142639,0.710324589 0.0391426981,0.710487185 L0.039142698,0.710487266 Z" id="e"></path>
                    </g>
                    <g id="f-link" transform="translate(15.555474, 34.868438)" fill="#BEC3D0" fill-rule="nonzero">
                        <path d="M0.0519530356,0.79657953 L0.0519530358,0.796578839 C0.05181002,1.21062673 0.387373043,1.54639457 0.80145297,1.5465369 C1.21553379,1.5466799 1.55132832,1.21114356 1.55147066,0.797096549 C1.55147071,0.796924388 1.55147071,0.796752227 1.55147066,0.796580067 L1.55147066,0.796580672 C1.55161362,0.382532776 1.21605065,0.0467649415 0.801970721,0.0466226158 C0.387889904,0.0464796584 0.0520953732,0.382015955 0.0519530361,0.796062962 C0.0519529766,0.796235123 0.0519529765,0.796407284 0.0519530357,0.796579444 L0.0519530356,0.79657953 Z" id="f"></path>
                    </g>
                </g>
            </g>
        </g>
    </g>
</svg>