<?xml version="1.0" encoding="UTF-8"?>
<svg width="16px" height="16px" viewBox="0 0 16 16" version="1.1" xmlns="http://www.w3.org/2000/svg" xmlns:xlink="http://www.w3.org/1999/xlink">
    <!-- Generator: Sketch 53 (72520) - https://sketchapp.com -->
    <title>icon_eye</title>
    <desc>Created with Sketch.</desc>
    <g id="Page-1" stroke="none" stroke-width="1" fill="none" fill-rule="evenodd">
        <g id="登录激活" transform="translate(-320.000000, -216.000000)">
            <g id="Group-2" transform="translate(24.000000, 71.000000)">
                <g id="密码" transform="translate(0.000000, 109.000000)"></g>
                <path d="M304,147 C300.363636,147 297.258182,149.280667 296,152.5 C297.258182,155.719333 300.363636,158 304,158 C307.636364,158 310.741818,155.719333 312,152.5 C310.741818,149.280667 307.636364,147 304,147 Z M304,156.166667 C301.992727,156.166667 300.363636,154.524 300.363636,152.5 C300.363636,150.476 301.992727,148.833333 304,148.833333 C306.007273,148.833333 307.636364,150.476 307.636364,152.5 C307.636364,154.524 306.007273,156.166667 304,156.166667 Z M304,150.3 C302.792727,150.3 301.818182,151.282667 301.818182,152.5 C301.818182,153.717333 302.792727,154.7 304,154.7 C305.207273,154.7 306.181818,153.717333 306.181818,152.5 C306.181818,151.282667 305.207273,150.3 304,150.3 Z" id="Mask" fill="#FFFFFF" fill-rule="nonzero" opacity="0.159999996"></path>
            </g>
        </g>
    </g>
</svg>