<?xml version="1.0" encoding="UTF-8"?>
<svg width="12px" height="12px" viewBox="0 0 12 12" version="1.1" xmlns="http://www.w3.org/2000/svg" xmlns:xlink="http://www.w3.org/1999/xlink">
    <!-- Generator: Sketch 53 (72520) - https://sketchapp.com -->
    <title>icon_zhuanrushibai</title>
    <desc>Created with Sketch.</desc>
    <g id="Page-1" stroke="none" stroke-width="1" fill="none" fill-rule="evenodd" opacity="0.5">
        <g id="Group" fill="#FFFFFF" fill-rule="nonzero">
            <path d="M10.7586207,0 L4.13793103,0 C3.45517241,0 2.89655172,0.54 2.89655172,1.2 L2.89655172,1.4 C2.89655172,1.52 2.97931034,1.6 3.10344828,1.6 L9.10344828,1.6 C9.7862069,1.6 10.3448276,2.14 10.3448276,2.8 L10.3448276,9 C10.3448276,9.12 10.4275862,9.2 10.5517241,9.2 L10.7586207,9.2 C11.4413793,9.2 12,8.66 12,8 L12,1.2 C12,0.54 11.4413793,0 10.7586207,0 Z M7.86206897,2.8 L1.24137931,2.8 C0.55862069,2.8 0,3.34 0,4 L0,10.8 C0,11.46 0.55862069,12 1.24137931,12 L7.86206897,12 C8.54482759,12 9.10344828,11.46 9.10344828,10.8 L9.10344828,4 C9.10344828,3.34 8.54482759,2.8 7.86206897,2.8 L7.86206897,2.8 Z M5.29296122,7.52152055 L6.94822297,9.16526356 C7.02632758,9.24282465 7.02707799,9.36891958 6.94990203,9.44740477 L6.46824931,9.93722832 C6.46801938,9.93746214 6.46778888,9.9376954 6.46755781,9.93792809 C6.38972614,10.0163052 6.26309392,10.0167473 6.18471682,9.93891565 L4.51761386,8.28341384 L2.83197032,9.93980757 C2.7531849,10.0172259 2.62655675,10.0161176 2.54913844,9.9373322 C2.54707385,9.93523116 2.54505593,9.93308475 2.54308616,9.93089457 L2.04625037,9.37846391 C1.97468469,9.29889019 1.97844292,9.17708018 2.05477802,9.10206967 L3.70703878,7.47847945 L2.05177703,5.83473644 C1.97367242,5.75717535 1.97292201,5.63108042 2.05009797,5.55259523 L2.53175069,5.06277168 C2.53198062,5.06253786 2.53221112,5.0623046 2.53244219,5.06207191 C2.61027386,4.98369482 2.73690608,4.98325267 2.81528318,5.06108435 L4.48238614,6.71658616 L6.16802968,5.06019243 C6.2468151,4.98277411 6.37344325,4.98388238 6.45086156,5.0626678 C6.45292615,5.06476884 6.45494407,5.06691525 6.45691384,5.06910543 L6.95374963,5.62153609 C7.02531531,5.70110981 7.02155708,5.82291982 6.94522198,5.89793033 L5.29296122,7.52152055 Z" id="形状-copy-2"></path>
        </g>
    </g>
</svg>