<?xml version="1.0" encoding="UTF-8"?>
<svg width="24px" height="24px" viewBox="0 0 24 24" version="1.1" xmlns="http://www.w3.org/2000/svg" xmlns:xlink="http://www.w3.org/1999/xlink">
    <!-- Generator: Sketch 53 (72520) - https://sketchapp.com -->
    <title>icon_scanning</title>
    <desc>Created with Sketch.</desc>
    <g id="Page-1" stroke="none" stroke-width="1" fill="none" fill-rule="evenodd">
        <g id="分组-2" fill="#FFFFFF" fill-rule="nonzero">
            <g id="分组-11" transform="translate(5.000000, 5.000000)">
                <path d="M13.3257148,10.0352014 C13.0946027,10.0352014 12.9054991,10.224305 12.9054991,10.4554172 L12.9054991,12.4852834 C12.9054991,12.7163955 12.7163955,12.9054991 12.4852833,12.9054991 L10.4733547,12.9054991 C10.2422425,12.9054991 10.0531389,13.0946027 10.0531389,13.3257149 L10.0531389,13.5137251 C10.0531389,13.7448373 10.2422425,13.9339409 10.4733547,13.9339409 L13.5128171,13.9339409 C13.7439293,13.9339409 13.9330329,13.7448373 13.9330329,13.5137251 L13.9330329,10.4554172 C13.9330329,10.224305 13.7439293,10.0352014 13.5128171,10.0352014 L13.3257148,10.0352014 Z" id="路径"></path>
                <path d="M0.608188977,4.14593608 C0.839319684,4.14593608 1.02840474,3.9568325 1.02840474,3.72572032 L1.02840472,1.44863903 C1.02840472,1.21750832 1.2175083,1.02842326 1.44862048,1.02842326 L3.74362077,1.02842326 C3.97475148,1.02842326 4.16383653,0.839319684 4.16383653,0.608207502 L4.16383653,0.420215762 C4.16383653,0.189085055 3.97473295,-1.77635684e-14 3.74362077,-1.77635684e-14 L0.420215762,1.81084251e-08 C0.189085055,1.81084251e-08 2.48689958e-14,0.189103598 2.48689958e-14,0.42021578 L2.48689958e-14,3.72570181 C2.48689958e-14,3.95683252 0.18910358,4.14591758 0.420215762,4.14591758 L0.608188977,4.14591756 L0.608188977,4.14593608 Z" id="路径"></path>
                <path d="M10.0531389,0.60820752 C10.0531389,0.839338227 10.2422425,1.02842328 10.4733547,1.02842328 L12.4852833,1.02842328 C12.7163955,1.02842328 12.9054991,1.21752686 12.9054991,1.44863904 L12.9054991,3.72570181 C12.9054991,3.95683252 13.0946027,4.14591758 13.3257148,4.14591758 L13.5128171,4.14591756 C13.7439293,4.14591756 13.9330329,3.95681398 13.9330329,3.7257018 L13.9330329,0.42021578 C13.9330329,0.189085073 13.7439293,1.78298696e-08 13.5128171,1.78298696e-08 L10.4733547,1.78298693e-08 C10.2422425,1.78298693e-08 10.0531389,0.189103598 10.0531389,0.42021578 L10.0531389,0.60820752 Z" id="路径"></path>
                <path d="M4.16385506,13.3257148 C4.16385506,13.0946027 3.97475148,12.9054991 3.7436393,12.9054991 L1.44863901,12.9054991 C1.2175083,12.9054991 1.02842325,12.7163955 1.02842325,12.4852833 L1.02842326,10.4554172 C1.02842326,10.224305 0.839319684,10.0352014 0.608207502,10.0352014 L0.420215762,10.0352014 C0.189085055,10.0352014 -6.75015599e-14,10.224305 -6.75015599e-14,10.4554172 L-6.75015599e-14,13.5137066 C-6.75015599e-14,13.7448188 0.18910358,13.9339224 0.420215762,13.9339224 L3.7436393,13.9339224 C3.97477,13.9339224 4.16385506,13.7448188 4.16385506,13.5137066 L4.16385506,13.3257148 Z" id="路径"></path>
                <path d="M13.1222687,7.15858491 C13.1222687,7.38969709 12.9331651,7.57880068 12.7020529,7.57880068 L1.63944739,7.57880066 C1.40831668,7.57880066 1.21923163,7.38969708 1.21923163,7.15858489 L1.21923163,6.77531892 C1.21923163,6.54418822 1.40833521,6.35510316 1.63944739,6.35510316 L12.7020529,6.35510316 C12.9331651,6.35510316 13.1222687,6.54420674 13.1222687,6.77531892 L13.1222687,7.15858491 Z" id="路径"></path>
            </g>
        </g>
    </g>
</svg>