<?xml version="1.0" encoding="UTF-8"?>
<svg width="12px" height="12px" viewBox="0 0 12 12" version="1.1" xmlns="http://www.w3.org/2000/svg" xmlns:xlink="http://www.w3.org/1999/xlink">
    <!-- Generator: Sketch 53 (72520) - https://sketchapp.com -->
    <title>icon_processing</title>
    <desc>Created with Sketch.</desc>
    <g id="Page-1" stroke="none" stroke-width="1" fill="none" fill-rule="evenodd">
        <g id="分组-31" fill="#FFD559" fill-rule="nonzero">
            <path d="M6,5.99520433e-16 C2.6862915,-1.99840144e-16 3.99680289e-16,2.6862915 0,6 C-3.99680289e-16,9.3137085 2.6862915,12 6,12 C9.3137085,12 12,9.3137085 12,6 C12,4.40870106 11.367859,2.88257758 10.2426407,1.75735931 C9.11742242,0.632141042 7.59129894,1.99840144e-16 6,5.99520433e-16 Z M8.4,6.6 L6,6.6 C5.66862915,6.6 5.4,6.33137085 5.4,6 L5.4,3.6 C5.4,3.26862914 5.66862915,2.99999999 6,2.99999999 C6.33137085,2.99999999 6.6,3.26862914 6.6,3.6 L6.6,5.4 L8.4,5.4 C8.73137086,5.4 9.00000001,5.66862915 9.00000001,6 C9.00000001,6.33137085 8.73137086,6.6 8.4,6.6 L8.4,6.6 Z" id="形状"></path>
        </g>
    </g>
</svg>