<?xml version="1.0" encoding="UTF-8"?>
<svg width="12px" height="12px" viewBox="0 0 12 12" version="1.1" xmlns="http://www.w3.org/2000/svg" xmlns:xlink="http://www.w3.org/1999/xlink">
    <!-- Generator: Sketch 53 (72520) - https://sketchapp.com -->
    <title>icon_zhuanruchenggong</title>
    <desc>Created with Sketch.</desc>
    <g id="Page-1" stroke="none" stroke-width="1" fill="none" fill-rule="evenodd">
        <g id="Group" fill="#2AEAC3" fill-rule="nonzero">
            <path d="M10.7586207,0 L4.13793103,0 C3.45517241,0 2.89655172,0.54 2.89655172,1.2 L2.89655172,1.4 C2.89655172,1.52 2.97931034,1.6 3.10344828,1.6 L9.10344828,1.6 C9.7862069,1.6 10.3448276,2.14 10.3448276,2.8 L10.3448276,9 C10.3448276,9.12 10.4275862,9.2 10.5517241,9.2 L10.7586207,9.2 C11.4413793,9.2 12,8.66 12,8 L12,1.2 C12,0.54 11.4413793,0 10.7586207,0 Z M7.86206897,2.8 L1.24137931,2.8 C0.55862069,2.8 0,3.34 0,4 L0,10.8 C0,11.46 0.55862069,12 1.24137931,12 L7.86206897,12 C8.54482759,12 9.10344828,11.46 9.10344828,10.8 L9.10344828,4 C9.10344828,3.34 8.54482759,2.8 7.86206897,2.8 L7.86206897,2.8 Z M4.13793103,9.26 C4.0137931,9.38 3.86896552,9.44 3.70344828,9.44 C3.55862069,9.44 3.39310345,9.38 3.26896552,9.26 L1.73793103,7.78 C1.6137931,7.66 1.6137931,7.48 1.73793103,7.36 L2.17241379,6.94 C2.29655172,6.82 2.48275862,6.82 2.60689655,6.94 L3.70344828,8 L6.43448276,5.36 C6.55862069,5.24 6.74482759,5.24 6.86896552,5.36 L7.30344828,5.78 C7.40689655,5.9 7.40689655,6.1 7.30344828,6.2 L4.13793103,9.26 Z" id="形状-copy-2"></path>
        </g>
    </g>
</svg>