<?xml version="1.0" encoding="UTF-8"?>
<svg width="16px" height="16px" viewBox="0 0 16 16" version="1.1" xmlns="http://www.w3.org/2000/svg" xmlns:xlink="http://www.w3.org/1999/xlink">
    <!-- Generator: Sketch 53 (72520) - https://sketchapp.com -->
    <title>icon_transfer</title>
    <desc>Created with Sketch.</desc>
    <g id="Page-1" stroke="none" stroke-width="1" fill="none" fill-rule="evenodd">
        <g id="分组-8-copy-2" fill="#FFFFFF" fill-rule="nonzero">
            <g id="transfer-accounts">
                <path d="M15.3640111,1.3003102 L15.3833983,1.3003102 C15.0696379,1.3003102 14.832312,1.58972517 14.832312,1.89622857 L14.832312,3.40107755 C13.3110418,1.35510204 10.7053148,-5.32907052e-15 8.0254039,-5.32907052e-15 C4.22226184,-5.32907052e-15 0.673537604,2.72731429 0.111041783,6.28852245 C0.0935487465,6.40054422 0.165236769,6.50159456 0.281247911,6.50159456 L1.0508078,6.50159456 C1.14342061,6.50159456 1.22081337,6.43583129 1.23659053,6.34666667 C1.76276323,3.3748898 4.7942507,1.11455782 7.98662953,1.11455782 C11.1790084,1.11455782 14.2104958,3.3748898 14.7366685,6.34666667 C14.740078,6.36543129 14.7473203,6.34647075 14.7556769,6.36281905 C14.7621393,6.66411973 15.0152423,6.87309932 15.3251922,6.87309932 L15.3639889,6.87309932 C15.6777493,6.87309932 15.9732591,6.69422585 15.9732591,6.38772245 L15.9732591,1.89622857 C15.9732591,1.58972517 15.6777716,1.3003102 15.3640111,1.3003102 Z M15.6922117,9.4737415 L14.9226295,9.4737415 C14.830039,9.4737415 14.7526462,9.53948299 14.7368468,9.62866939 C14.2104958,12.6004463 11.1790084,14.8607782 7.98662953,14.8607782 C4.7942507,14.8607782 1.71732591,12.6004463 1.1911532,9.62866939 C1.19039554,9.6242068 1.14094708,9.6203102 1.14094708,9.61584762 L1.14094708,9.48841361 C1.14094708,9.1819102 0.929693593,8.91646259 0.615933148,8.91646259 L0.593091922,8.91646259 C0.279532033,8.91646259 -5.86197757e-14,9.1819102 -5.86197757e-14,9.48841361 L-5.86197757e-14,13.9797333 C-5.86197757e-14,14.2862367 0.302172702,14.4892517 0.615933148,14.4892517 L0.593091922,14.4892517 C0.906852368,14.4892517 1.14074652,14.286215 1.14074652,13.9797116 L1.14074652,12.5939374 C2.66221727,14.6289415 5.270039,15.9753361 7.9411922,15.9753361 C11.7443343,15.9753361 15.2962897,13.248 15.8587855,9.68661769 C15.8766574,9.57479184 15.8080223,9.4737415 15.6922117,9.4737415 L15.6922117,9.4737415 Z" id="形状"></path>
                <path d="M11.9362006,6.09569524 L9.85111978,4.33525986 C9.78551532,4.29235374 9.69805014,4.33861224 9.69805014,4.41606531 L9.69805014,5.57278912 L4.94411142,5.57278912 C4.63035097,5.57278912 4.37363788,5.82356463 4.37363788,6.13006803 C4.37363788,6.43657143 4.63035097,6.68734694 4.94411142,6.68734694 L9.69805014,6.68734694 L9.69805014,7.9367619 C9.69805014,8.01423673 9.78551532,8.06047347 9.85091922,8.01756735 L11.9360223,6.25730612 C11.994585,6.21886259 11.994585,6.13416054 11.9362006,6.09569524 L11.9362006,6.09569524 Z M4.41738162,9.60097959 L6.50244011,11.361415 C6.56804457,11.4043429 6.65553203,11.3580844 6.65553203,11.2804354 L6.65553203,10.2167728 L11.4094708,10.2167728 C11.7232312,10.2167728 11.9799443,9.96599728 11.9799443,9.65949388 C11.9799443,9.35299048 11.7232312,9.10221497 11.4094708,9.10221497 L6.65553203,9.10221497 L6.65553203,7.75991293 C6.65553203,7.68245986 6.56804457,7.63620136 6.50264067,7.67910748 L4.41735933,9.43936871 C4.35897493,9.47783401 4.35897493,9.56253605 4.41735933,9.60097959 L4.41738162,9.60097959 Z" id="形状"></path>
            </g>
        </g>
    </g>
</svg>