<?xml version="1.0" encoding="UTF-8"?>
<svg width="20px" height="20px" viewBox="0 0 20 20" version="1.1" xmlns="http://www.w3.org/2000/svg" xmlns:xlink="http://www.w3.org/1999/xlink">
    <!-- Generator: Sketch 53 (72520) - https://sketchapp.com -->
    <title>icon_wallet_selected</title>
    <desc>Created with Sketch.</desc>
    <g id="Page-1" stroke="none" stroke-width="1" fill="none" fill-rule="evenodd">
        <g id="分组-17" fill="#FFFFFF">
            <g id="分组-2" transform="translate(0.000000, 3.000000)">
                <path d="M18,0 C19.1,0 20,0.92195122 20,2.04878049 L20,11.9512195 C20,13.0780488 19.1,14 18,14 L2,14 C0.9,14 -7.10542736e-15,13.0780488 -7.10542736e-15,11.9512195 L-7.10542736e-15,2.04878049 C-7.10542736e-15,0.92195122 0.9,0 2,0 L18,0 Z M11.2398374,3.92682927 C9.54257207,3.92682927 8.16666667,5.30273467 8.16666667,7 C8.16666667,8.69726533 9.54257207,10.0731707 11.2398374,10.0731707 L16.6666667,10.0731707 C17.2189514,10.0731707 17.6666667,9.62545548 17.6666667,9.07317073 L17.6666667,4.92682927 C17.6666667,4.37454452 17.2189514,3.92682927 16.6666667,3.92682927 L11.2398374,3.92682927 Z" id="合并形状" fill-rule="nonzero"></path>
                <circle id="椭圆形" cx="12" cy="7" r="2"></circle>
            </g>
        </g>
    </g>
</svg>