<?xml version="1.0" encoding="UTF-8"?>
<svg width="20px" height="20px" viewBox="0 0 20 20" version="1.1" xmlns="http://www.w3.org/2000/svg" xmlns:xlink="http://www.w3.org/1999/xlink">
    <!-- Generator: Sketch 53 (72520) - https://sketchapp.com -->
    <title>icon_user_profile_normal</title>
    <desc>Created with Sketch.</desc>
    <g id="Page-1" stroke="none" stroke-width="1" fill="none" fill-rule="evenodd">
        <g id="contact" fill="#5E6180" fill-rule="nonzero">
            <path d="M18.0268061,3.03162651 L2.02680607,3.03162651 C0.92680607,3.03162651 0.0268060701,3.95357773 0.0268060701,5.08040699 L0.0268060701,14.982846 C0.0268060701,16.1096753 0.92680607,17.0316265 2.02680607,17.0316265 L18.0268061,17.0316265 C19.1268061,17.0316265 20.0268061,16.1096753 20.0268061,14.982846 L20.0268061,5.08040699 C20.0268061,3.95357773 19.1268061,3.03162651 18.0268061,3.03162651 Z M9.83997221,14.501506 L3.93834782,14.501506 C3.28642419,14.501506 2.77174765,13.7930723 2.77174765,13.1183735 C2.80605942,12.1063253 3.86972428,11.4990964 5.00201268,10.9930723 C5.79118339,10.6557229 5.89411869,10.3521084 5.89411869,10.014759 C5.89411869,9.67740964 5.68824808,9.37379518 5.41375392,9.1376506 C4.96770091,8.73283133 4.69320675,8.12560241 4.69320675,7.45090361 C4.69320675,6.1689759 5.48237746,5.08945783 6.85484825,5.08945783 C8.22731904,5.08945783 9.01648974,6.1689759 9.01648974,7.45090361 C9.01648974,8.12560241 8.77630735,8.73283133 8.29594258,9.1376506 C8.02144842,9.37379518 7.8155778,9.67740964 7.8155778,10.014759 C7.8155778,10.3521084 7.91851311,10.6557229 8.70768381,10.9593373 C9.83997221,11.4316265 10.9036371,12.1063253 10.9379488,13.1183735 C11.0065724,13.7930723 10.4918958,14.501506 9.83997221,14.501506 Z M17.8689263,12.1400602 C17.8689263,12.5111446 17.5601204,12.814759 17.1826909,12.814759 L14.0946317,12.814759 C13.7172022,12.814759 13.4083963,12.5111446 13.4083963,12.1400602 L13.4083963,11.128012 C13.4083963,10.7569277 13.7172022,10.4533133 14.0946317,10.4533133 L17.1826909,10.4533133 C17.5601204,10.4533133 17.8689263,10.7569277 17.8689263,11.128012 L17.8689263,12.1400602 Z M17.8689263,8.42921687 C17.8689263,8.8003012 17.5601204,9.10391566 17.1826909,9.10391566 L12.0359255,9.10391566 C11.658496,9.10391566 11.3496901,8.8003012 11.3496901,8.42921687 L11.3496901,7.41716867 C11.3496901,7.04608434 11.658496,6.74246988 12.0359255,6.74246988 L17.1826909,6.74246988 C17.5601204,6.74246988 17.8689263,7.04608434 17.8689263,7.41716867 L17.8689263,8.42921687 Z" id="形状"></path>
        </g>
    </g>
</svg>