<?xml version="1.0" encoding="UTF-8"?>
<svg width="20px" height="20px" viewBox="0 0 20 20" version="1.1" xmlns="http://www.w3.org/2000/svg" xmlns:xlink="http://www.w3.org/1999/xlink">
    <!-- Generator: Sketch 53 (72520) - https://sketchapp.com -->
    <title>icon_financial_management_selected</title>
    <desc>Created with Sketch.</desc>
    <g id="Page-1" stroke="none" stroke-width="1" fill="none" fill-rule="evenodd">
        <g id="合并形状-2" fill="#FFFFFF" fill-rule="nonzero">
            <path d="M18,3 C19.1,3 20,3.92195122 20,5.04878049 L20,14.9512195 C20,16.0780488 19.1,17 18,17 L2,17 C0.9,17 0,16.0780488 0,14.9512195 L0,5.04878049 C0,3.92195122 0.9,3 2,3 L18,3 Z M17.0341463,11.4634146 L17,11.4634146 L17,6.71707317 C17,6.34146341 16.7268293,6 16.3512195,6 L11.5707317,6 C11.2634146,6 11.1268293,6.4097561 11.3317073,6.61463415 L12.7658537,7.91219512 L10.5463415,10.4731707 L8.36097561,8.28780488 C7.98536585,7.87804878 7.33658537,7.87804878 6.92682927,8.28780488 L3.10243902,13.5121951 C2.96585366,13.6487805 2.96585366,13.8536585 3.10243902,13.9902439 L3.27317073,14.1609756 C3.4097561,14.297561 3.61463415,14.297561 3.75121951,14.1609756 L7.64390244,10.7463415 L9.82926829,13.2390244 C10.204878,13.6487805 10.8536585,13.6487805 11.2634146,13.2390244 L14.8829268,10.1317073 L16.4536585,11.702439 C16.6926829,11.9073171 17.0341463,11.7707317 17.0341463,11.4634146 Z" id="合并形状"></path>
        </g>
    </g>
</svg>