<?xml version="1.0" encoding="UTF-8"?>
<svg width="24px" height="24px" viewBox="0 0 24 24" version="1.1" xmlns="http://www.w3.org/2000/svg" xmlns:xlink="http://www.w3.org/1999/xlink">
    <!-- Generator: Sketch 53 (72520) - https://sketchapp.com -->
    <title>icon_history</title>
    <desc>Created with Sketch.</desc>
    <g id="Page-1" stroke="none" stroke-width="1" fill="none" fill-rule="evenodd">
        <g id="历史">
            <rect id="矩形" x="0" y="0" width="24" height="24"></rect>
            <path d="M15.592008,7.5547594 C12.0586055,7.5547594 9.18399273,10.4006067 9.18399273,13.8986945 C9.18399273,17.3967824 12.0586055,20.2426296 15.592008,20.2426296 C19.1254106,20.2426296 22.0000233,17.396763 22.0000233,13.8986945 C22.0000233,10.400626 19.1254301,7.5547594 15.592008,7.5547594 Z M15.592008,18.7200775 C12.9066533,18.7200775 10.7219242,16.5571957 10.7219242,13.8986945 C10.7219242,11.2401934 12.9066533,9.07727289 15.592008,9.07727289 C18.2773627,9.07727289 20.4621309,11.2401934 20.4621309,13.8986945 C20.4621309,16.5571957 18.2773627,18.7200775 15.592008,18.7200775 Z M2.76896574,16.7028921 C2.34418009,16.7028921 2,17.0438818 2,17.4641682 C2,17.884474 2.34418009,18.2254636 2.76896574,18.2254636 L8.713875,18.2254636 C8.40774183,17.749509 8.1530345,17.239697 7.95188193,16.7029115 L2.76896574,16.7029115 L2.76896574,16.7028921 Z M2.76896574,4.52255216 L19.1960161,4.52255216 C19.6208213,4.52255216 19.9649818,4.18156251 19.9649818,3.76127608 C19.9649818,3.34098965 19.6208018,3 19.1960356,3 L2.76894621,3 C2.34418009,2.99998066 2,3.34098965 2,3.76123741 C2,4.18152384 2.34418009,4.52253283 2.76896574,4.52253283 L2.76896574,4.52255216 Z M2.76896574,13.6578265 L7.4485415,13.6578265 C7.46412745,13.1364323 7.52647127,12.6273358 7.63736984,12.1352743 L2.76896574,12.1352743 C2.34418009,12.1352743 2,12.476264 2,12.8965504 C2,13.3168368 2.34418009,13.6578071 2.76896574,13.6578071 L2.76896574,13.6578265 Z M10.5403224,7.56763715 L2.76896574,7.56763715 C2.34418009,7.56763715 2,7.90860747 2,8.3288939 C2,8.74918032 2.34418009,9.09018931 2.76896574,9.09018931 L9.05145352,9.09018931 C9.47952042,8.52051326 9.97825147,8.00780094 10.5403224,7.56763715 L10.5403224,7.56763715 Z M17.847577,13.1542601 L16.3609737,13.1542601 L16.3609737,11.1241776 C16.3609737,10.7039105 16.0167741,10.3629209 15.592008,10.3629209 C15.1672419,10.3629209 14.8230227,10.7039105 14.8230227,11.1241776 L14.8230227,13.9155168 C14.8230227,14.3358226 15.1672224,14.6768122 15.592008,14.6768122 L17.847577,14.6768122 C18.2723432,14.6768122 18.6165232,14.3358226 18.6165232,13.9155361 C18.6165232,13.4952497 18.2723822,13.1542601 17.847577,13.1542601 Z" id="形状" fill="#FFFFFF" fill-rule="nonzero"></path>
        </g>
    </g>
</svg>